M48
;DRILL file {KiCad (5.0.2)-1} date 28/02/2019 19:15:22
;FORMAT={-:-/ absolute / metric / decimal}
FMAT,2
METRIC,TZ
T1C0.400
T2C0.500
T3C0.600
T4C0.750
T5C0.800
T6C0.900
T7C1.000
T8C1.150
T9C1.500
T10C2.200
T11C2.500
%
G90
G05
T1
X101.1Y-116.8
X101.1Y-69.2
X101.725Y-108.4
X103.28Y-100.8
X103.624Y-98.124
X104.008Y-92.97
X104.4Y-113.
X104.797Y-120.003
X105.2Y-114.
X105.804Y-111.798
X106.197Y-119.2
X106.197Y-121.6
X106.922Y-120.078
X107.451Y-122.025
X108.039Y-124.518
X108.126Y-120.653
X108.514Y-88.489
X108.647Y-110.853
X108.75Y-93.
X110.4Y-102.6
X110.4Y-86.607
X110.6Y-89.9
X111.Y-110.75
X111.538Y-95.977
X111.925Y-98.28
X112.4Y-88.8
X113.502Y-96.916
X114.634Y-106.338
X114.758Y-99.65
X114.8Y-109.2
X114.925Y-119.658
X115.Y-98.2
X116.032Y-94.532
X116.1Y-93.439
X116.487Y-84.487
X117.1Y-104.3
X117.854Y-93.354
X118.3Y-94.345
X118.6Y-85.4
X119.6Y-118.2
X122.763Y-132.18
X123.028Y-130.727
X124.Y-129.6
X124.Y-131.925
X124.4Y-89.
X124.6Y-98.5
X125.Y-130.
X125.125Y-88.1
X125.4Y-131.
X126.037Y-93.792
X127.2Y-76.7
X127.8Y-74.9
X128.1Y-95.9
X128.1Y-97.1
X128.15Y-94.727
X128.15Y-98.099
X128.6Y-100.8
X130.4Y-99.2
X130.426Y-116.834
X130.775Y-114.
X130.8Y-95.
X130.8Y-96.
X130.804Y-98.185
X130.901Y-97.19
X131.53Y-111.2
X131.8Y-86.6
X133.4Y-119.8
X134.25Y-68.75
X134.773Y-120.073
X135.Y-86.
X135.7Y-68.563
X135.8Y-109.2
X135.839Y-120.114
X135.925Y-111.2
X136.176Y-105.408
X136.325Y-108.311
X136.483Y-104.456
X136.7Y-115.
X137.Y-103.6
X137.19Y-96.897
X137.275Y-93.786
X137.275Y-94.786
X137.275Y-95.786
X146.1Y-91.7
X147.Y-112.
X147.25Y-99.92
X147.4Y-93.25
X152.5Y-92.
X157.85Y-105.293
X157.85Y-94.25
X162.263Y-92.263
X163.Y-68.
X167.75Y-104.
X168.725Y-110.5
X170.Y-105.25
X171.Y-68.
X173.Y-88.
X173.695Y-97.17
X174.74Y-89.76
X175.265Y-88.235
X176.75Y-97.175
X178.75Y-95.75
X181.468Y-105.13
X182.323Y-110.75
X118.35Y-137.4
X118.833Y-136.233
X118.833Y-138.567
X120.Y-135.75
X120.Y-139.05
X121.167Y-136.233
X121.167Y-138.567
X121.65Y-137.4
T2
X103.Y-96.
X111.275Y-105.75
X114.9Y-111.9
X119.3Y-87.8
X125.4Y-118.6
X127.Y-103.2
X143.279Y-105.264
X146.2Y-86.1
X148.7Y-117.3
X151.75Y-129.
X153.75Y-139.
X155.75Y-132.25
X156.75Y-104.25
X162.875Y-56.
X163.424Y-54.674
X163.424Y-57.326
X164.75Y-54.125
X164.75Y-57.875
X166.076Y-54.674
X166.076Y-57.326
X166.625Y-56.
X178.125Y-137.5
X178.674Y-136.174
X178.674Y-138.826
X180.Y-135.625
X180.Y-139.375
X181.326Y-136.174
X181.326Y-138.826
X181.875Y-137.5
X148.025Y-137.4
X148.574Y-136.074
X148.574Y-138.726
X149.9Y-135.525
X149.9Y-139.275
X151.226Y-136.074
X151.226Y-138.726
X151.775Y-137.4
T4
X151.13Y-72.97
X152.4Y-71.7
X152.4Y-74.24
X156.6Y-58.9
X156.6Y-60.17
X156.6Y-61.44
T5
X104.Y-70.25
X106.5Y-70.25
X144.1Y-53.6
X144.1Y-56.1
X144.Y-95.6
X144.Y-98.1
X163.75Y-63.
X166.25Y-63.
X146.Y-93.1
X146.Y-95.64
X146.Y-98.18
X146.Y-100.72
X146.Y-103.26
X146.Y-105.8
X146.Y-108.34
X146.Y-110.88
X153.62Y-93.1
X153.62Y-95.64
X153.62Y-98.18
X153.62Y-100.72
X153.62Y-103.26
X153.62Y-105.8
X153.62Y-108.34
X153.62Y-110.88
X113.Y-69.
X113.Y-71.5
X156.4Y-53.9
X156.4Y-56.4
X128.Y-68.5
X128.Y-71.
X107.01Y-80.25
X107.01Y-82.79
X107.01Y-85.33
X107.01Y-87.87
X107.01Y-90.41
X107.01Y-92.95
X107.01Y-95.49
X107.01Y-98.03
X107.01Y-100.57
X107.01Y-103.11
X107.01Y-105.65
X107.01Y-108.19
X107.01Y-110.73
X107.01Y-113.27
X107.01Y-115.81
X122.25Y-80.25
X122.25Y-82.79
X122.25Y-85.33
X122.25Y-87.87
X122.25Y-90.41
X122.25Y-92.95
X122.25Y-95.49
X122.25Y-98.03
X122.25Y-100.57
X122.25Y-103.11
X122.25Y-105.65
X122.25Y-108.19
X122.25Y-110.73
X122.25Y-113.27
X122.25Y-115.81
X178.75Y-69.
X181.25Y-69.
X147.1Y-88.
X149.6Y-88.
T6
X163.5Y-114.46
X163.5Y-117.
X197.5Y-52.21
X197.5Y-54.75
X135.46Y-63.5
X138.Y-63.5
X197.5Y-106.71
X197.5Y-109.25
X197.5Y-88.46
X197.5Y-91.
X138.Y-109.46
X138.Y-112.
X127.333Y-143.46
X127.333Y-146.
X197.5Y-97.21
X197.5Y-99.75
X163.5Y-105.46
X163.5Y-108.
X197.5Y-79.46
X197.5Y-82.
X197.5Y-61.21
X197.5Y-63.75
X137.Y-143.46
X137.Y-146.
X102.Y-63.5
X104.54Y-63.5
X122.5Y-143.46
X122.5Y-146.
X197.5Y-115.96
X197.5Y-118.5
X197.5Y-70.21
X197.5Y-72.75
X197.5Y-124.96
X197.5Y-127.5
X132.167Y-143.46
X132.167Y-146.
X197.5Y-133.96
X197.5Y-136.5
X102.7Y-109.71
X102.7Y-112.25
T7
X117.5Y-123.5
X117.5Y-126.
X117.5Y-128.5
X148.8Y-52.64
X148.8Y-55.18
X148.8Y-57.72
X148.8Y-60.26
X148.8Y-62.8
X151.34Y-52.64
X151.34Y-55.18
X151.34Y-57.72
X151.34Y-60.26
X151.34Y-62.8
X117.5Y-77.5
X117.5Y-80.
X117.5Y-82.5
X137.5Y-123.5
X137.5Y-126.
X137.5Y-128.5
X162.5Y-77.75
X162.5Y-80.25
X162.5Y-82.75
X142.5Y-77.5
X142.5Y-80.
X142.5Y-82.5
X119.Y-52.
X119.Y-54.54
X119.Y-57.08
X119.Y-59.62
X119.Y-62.16
X119.Y-64.7
X119.Y-67.24
X119.Y-69.78
X121.54Y-52.
X121.54Y-54.54
X121.54Y-57.08
X121.54Y-59.62
X121.54Y-62.16
X121.54Y-64.7
X121.54Y-67.24
X121.54Y-69.78
X145.1Y-87.9
X145.1Y-90.44
X137.5Y-77.5
X137.5Y-80.
X137.5Y-82.5
X107.5Y-133.5
X107.5Y-148.
X110.Y-133.5
X112.5Y-133.5
X112.5Y-148.
X178.5Y-53.34
X178.5Y-55.88
X178.5Y-58.42
X178.5Y-60.96
X178.5Y-63.5
X181.04Y-53.34
X181.04Y-55.88
X181.04Y-58.42
X181.04Y-60.96
X181.04Y-63.5
X117.5Y-110.5
X117.5Y-113.
X117.5Y-115.5
X142.5Y-123.5
X142.5Y-126.
X142.5Y-128.5
T10
X120.Y-137.4
T11
X164.75Y-56.
X180.Y-137.5
X149.9Y-137.4
T2
X125.08Y-113.8G85X125.08Y-112.2
G05
X174.92Y-118.95G85X174.92Y-120.55
G05
X184.123Y-111.441G85X184.123Y-109.841
G05
X184.123Y-65.843G85X184.123Y-64.243
G05
X184.123Y-102.322G85X184.123Y-100.722
G05
X184.123Y-56.724G85X184.123Y-55.124
G05
X154.92Y-66.2G85X154.92Y-67.8
G05
X125.08Y-67.8G85X125.08Y-66.2
G05
X184.123Y-93.202G85X184.123Y-91.602
G05
X105.08Y-92.3G85X105.08Y-90.7
G05
X184.123Y-138.8G85X184.123Y-137.2
G05
X125.08Y-101.3G85X125.08Y-99.7
G05
X184.123Y-74.963G85X184.123Y-73.363
G05
X105.08Y-101.3G85X105.08Y-99.7
G05
X174.92Y-100.7G85X174.92Y-102.3
G05
X154.92Y-144.2G85X154.92Y-145.8
G05
X114.92Y-66.2G85X114.92Y-67.8
G05
X184.123Y-120.561G85X184.123Y-118.961
G05
X184.123Y-84.083G85X184.123Y-82.483
G05
X125.08Y-138.3G85X125.08Y-136.7
G05
X174.92Y-109.852G85X174.92Y-111.452
G05
X184.123Y-129.68G85X184.123Y-128.08
G05
T3
X192.423Y-65.743G85X192.423Y-64.343
G05
X195.523Y-65.443G85X195.523Y-64.643
G05
X192.423Y-102.222G85X192.423Y-100.822
G05
X195.523Y-101.922G85X195.523Y-101.122
G05
X192.423Y-56.624G85X192.423Y-55.224
G05
X195.523Y-56.324G85X195.523Y-55.524
G05
X143.52Y-66.6G85X143.52Y-67.4
G05
X146.62Y-66.3G85X146.62Y-67.7
G05
X133.38Y-67.7G85X133.38Y-66.3
G05
X136.48Y-67.4G85X136.48Y-66.6
G05
X192.423Y-93.102G85X192.423Y-91.702
G05
X195.523Y-92.802G85X195.523Y-92.002
G05
X113.38Y-92.2G85X113.38Y-90.8
G05
X116.48Y-91.9G85X116.48Y-91.1
G05
X192.423Y-138.7G85X192.423Y-137.3
G05
X195.523Y-138.4G85X195.523Y-137.6
G05
X133.38Y-101.2G85X133.38Y-99.8
G05
X136.48Y-100.9G85X136.48Y-100.1
G05
X192.423Y-74.863G85X192.423Y-73.463
G05
X195.523Y-74.563G85X195.523Y-73.763
G05
X113.38Y-101.2G85X113.38Y-99.8
G05
X116.48Y-100.9G85X116.48Y-100.1
G05
X163.52Y-101.1G85X163.52Y-101.9
G05
X166.62Y-100.8G85X166.62Y-102.2
G05
X143.52Y-144.6G85X143.52Y-145.4
G05
X146.62Y-144.3G85X146.62Y-145.7
G05
X103.52Y-66.6G85X103.52Y-67.4
G05
X106.62Y-66.3G85X106.62Y-67.7
G05
X192.423Y-120.461G85X192.423Y-119.061
G05
X195.523Y-120.161G85X195.523Y-119.361
G05
X192.423Y-83.983G85X192.423Y-82.583
G05
X195.523Y-83.683G85X195.523Y-82.883
G05
X133.38Y-138.2G85X133.38Y-136.8
G05
X136.48Y-137.9G85X136.48Y-137.1
G05
X163.52Y-110.252G85X163.52Y-111.052
G05
X166.62Y-109.952G85X166.62Y-111.352
G05
X192.423Y-129.58G85X192.423Y-128.18
G05
X195.523Y-129.28G85X195.523Y-128.48
G05
X133.38Y-113.7G85X133.38Y-112.3
G05
X136.48Y-113.4G85X136.48Y-112.6
G05
X163.52Y-119.35G85X163.52Y-120.15
G05
X166.62Y-119.05G85X166.62Y-120.45
G05
X192.423Y-111.341G85X192.423Y-109.941
G05
X195.523Y-111.041G85X195.523Y-110.241
G05
T7
X165.05Y-138.15G85X165.05Y-136.85
G05
X169.75Y-138.15G85X169.75Y-136.85
G05
X174.45Y-138.15G85X174.45Y-136.85
G05
X125.3Y-92.15G85X125.3Y-90.85
G05
X130.Y-92.15G85X130.Y-90.85
G05
X134.7Y-92.15G85X134.7Y-90.85
G05
T8
X126.062Y-53.906G85X126.062Y-52.506
G05
X126.062Y-59.494G85X126.062Y-58.094
G05
X130.Y-53.906G85X130.Y-52.506
G05
X130.Y-59.494G85X130.Y-58.094
G05
X133.81Y-53.906G85X133.81Y-52.506
G05
X133.81Y-59.494G85X133.81Y-58.094
G05
X106.062Y-53.906G85X106.062Y-52.506
G05
X106.062Y-59.494G85X106.062Y-58.094
G05
X110.Y-53.906G85X110.Y-52.506
G05
X110.Y-59.494G85X110.Y-58.094
G05
X113.81Y-53.906G85X113.81Y-52.506
G05
X113.81Y-59.494G85X113.81Y-58.094
G05
T9
X104.4Y-140.35G85X104.4Y-141.65
G05
X115.6Y-140.35G85X115.6Y-141.65
G05
T0
M30
