%TF.GenerationSoftware,KiCad,Pcbnew,(5.0.2)-1*%
%TF.CreationDate,2019-02-27T22:14:54+01:00*%
%TF.ProjectId,Kicad-EffectsUnit1,4b696361-642d-4456-9666-65637473556e,Rev A*%
%TF.SameCoordinates,Original*%
%TF.FileFunction,Paste,Top*%
%TF.FilePolarity,Positive*%
%FSLAX46Y46*%
G04 Gerber Fmt 4.6, Leading zero omitted, Abs format (unit mm)*
G04 Created by KiCad (PCBNEW (5.0.2)-1) date 27/02/2019 22:14:54*
%MOMM*%
%LPD*%
G01*
G04 APERTURE LIST*
%ADD10C,1.000000*%
%ADD11C,0.150000*%
%ADD12C,1.150000*%
G04 APERTURE END LIST*
D10*
X159950000Y-60100000D02*
X159950000Y-140100000D01*
X158950000Y-140100000D02*
X158950000Y-60100000D01*
X158950000Y-60100000D02*
X159950000Y-60100000D01*
X158950000Y-140100000D02*
X159950000Y-140100000D01*
X139950000Y-140000000D02*
X140950000Y-140000000D01*
X139950000Y-60000000D02*
X140950000Y-60000000D01*
X139950000Y-140000000D02*
X139950000Y-60000000D01*
X140950000Y-60000000D02*
X140950000Y-140000000D01*
X200000000Y-50000000D02*
X100000000Y-50000000D01*
X200000000Y-150000000D02*
X200000000Y-50000000D01*
X100000000Y-150000000D02*
X200000000Y-150000000D01*
X100000000Y-50000000D02*
X100000000Y-150000000D01*
D11*
G36*
X152574505Y-86801204D02*
X152598773Y-86804804D01*
X152622572Y-86810765D01*
X152645671Y-86819030D01*
X152667850Y-86829520D01*
X152688893Y-86842132D01*
X152708599Y-86856747D01*
X152726777Y-86873223D01*
X152743253Y-86891401D01*
X152757868Y-86911107D01*
X152770480Y-86932150D01*
X152780970Y-86954329D01*
X152789235Y-86977428D01*
X152795196Y-87001227D01*
X152798796Y-87025495D01*
X152800000Y-87049999D01*
X152800000Y-87700001D01*
X152798796Y-87724505D01*
X152795196Y-87748773D01*
X152789235Y-87772572D01*
X152780970Y-87795671D01*
X152770480Y-87817850D01*
X152757868Y-87838893D01*
X152743253Y-87858599D01*
X152726777Y-87876777D01*
X152708599Y-87893253D01*
X152688893Y-87907868D01*
X152667850Y-87920480D01*
X152645671Y-87930970D01*
X152622572Y-87939235D01*
X152598773Y-87945196D01*
X152574505Y-87948796D01*
X152550001Y-87950000D01*
X151649999Y-87950000D01*
X151625495Y-87948796D01*
X151601227Y-87945196D01*
X151577428Y-87939235D01*
X151554329Y-87930970D01*
X151532150Y-87920480D01*
X151511107Y-87907868D01*
X151491401Y-87893253D01*
X151473223Y-87876777D01*
X151456747Y-87858599D01*
X151442132Y-87838893D01*
X151429520Y-87817850D01*
X151419030Y-87795671D01*
X151410765Y-87772572D01*
X151404804Y-87748773D01*
X151401204Y-87724505D01*
X151400000Y-87700001D01*
X151400000Y-87049999D01*
X151401204Y-87025495D01*
X151404804Y-87001227D01*
X151410765Y-86977428D01*
X151419030Y-86954329D01*
X151429520Y-86932150D01*
X151442132Y-86911107D01*
X151456747Y-86891401D01*
X151473223Y-86873223D01*
X151491401Y-86856747D01*
X151511107Y-86842132D01*
X151532150Y-86829520D01*
X151554329Y-86819030D01*
X151577428Y-86810765D01*
X151601227Y-86804804D01*
X151625495Y-86801204D01*
X151649999Y-86800000D01*
X152550001Y-86800000D01*
X152574505Y-86801204D01*
X152574505Y-86801204D01*
G37*
D12*
X152100000Y-87375000D03*
D11*
G36*
X152574505Y-88851204D02*
X152598773Y-88854804D01*
X152622572Y-88860765D01*
X152645671Y-88869030D01*
X152667850Y-88879520D01*
X152688893Y-88892132D01*
X152708599Y-88906747D01*
X152726777Y-88923223D01*
X152743253Y-88941401D01*
X152757868Y-88961107D01*
X152770480Y-88982150D01*
X152780970Y-89004329D01*
X152789235Y-89027428D01*
X152795196Y-89051227D01*
X152798796Y-89075495D01*
X152800000Y-89099999D01*
X152800000Y-89750001D01*
X152798796Y-89774505D01*
X152795196Y-89798773D01*
X152789235Y-89822572D01*
X152780970Y-89845671D01*
X152770480Y-89867850D01*
X152757868Y-89888893D01*
X152743253Y-89908599D01*
X152726777Y-89926777D01*
X152708599Y-89943253D01*
X152688893Y-89957868D01*
X152667850Y-89970480D01*
X152645671Y-89980970D01*
X152622572Y-89989235D01*
X152598773Y-89995196D01*
X152574505Y-89998796D01*
X152550001Y-90000000D01*
X151649999Y-90000000D01*
X151625495Y-89998796D01*
X151601227Y-89995196D01*
X151577428Y-89989235D01*
X151554329Y-89980970D01*
X151532150Y-89970480D01*
X151511107Y-89957868D01*
X151491401Y-89943253D01*
X151473223Y-89926777D01*
X151456747Y-89908599D01*
X151442132Y-89888893D01*
X151429520Y-89867850D01*
X151419030Y-89845671D01*
X151410765Y-89822572D01*
X151404804Y-89798773D01*
X151401204Y-89774505D01*
X151400000Y-89750001D01*
X151400000Y-89099999D01*
X151401204Y-89075495D01*
X151404804Y-89051227D01*
X151410765Y-89027428D01*
X151419030Y-89004329D01*
X151429520Y-88982150D01*
X151442132Y-88961107D01*
X151456747Y-88941401D01*
X151473223Y-88923223D01*
X151491401Y-88906747D01*
X151511107Y-88892132D01*
X151532150Y-88879520D01*
X151554329Y-88869030D01*
X151577428Y-88860765D01*
X151601227Y-88854804D01*
X151625495Y-88851204D01*
X151649999Y-88850000D01*
X152550001Y-88850000D01*
X152574505Y-88851204D01*
X152574505Y-88851204D01*
G37*
D12*
X152100000Y-89425000D03*
M02*
